<svg width="24" height="24" viewBox="0 0 24 24" fill="none" xmlns="http://www.w3.org/2000/svg">
<path d="M3.41394 10.7443C2.8186 10.5128 2.52092 10.397 2.43402 10.2302C2.35868 10.0856 2.35858 9.91336 2.43375 9.76867C2.52045 9.60177 2.81799 9.48565 3.41307 9.25343L20.3008 2.66309C20.838 2.45346 21.1066 2.34864 21.2782 2.40598C21.4273 2.45577 21.5442 2.57274 21.594 2.72179C21.6514 2.89342 21.5465 3.16201 21.3369 3.69919L14.7466 20.5869C14.5143 21.182 14.3982 21.4795 14.2313 21.5663C14.0866 21.6414 13.9144 21.6413 13.7698 21.566C13.603 21.4791 13.4872 21.1814 13.2557 20.5861L10.6276 13.8281C10.5806 13.7072 10.5571 13.6468 10.5208 13.5959C10.4886 13.5508 10.4492 13.5114 10.4041 13.4792C10.3532 13.4429 10.2928 13.4194 10.1719 13.3724L3.41394 10.7443Z" stroke="white" stroke-width="2" stroke-linecap="round" stroke-linejoin="round"/>
</svg>
