<svg width="1754" height="950" viewBox="0 0 1754 950" fill="none" xmlns="http://www.w3.org/2000/svg">
<path opacity="0.18" d="M1476 890.888C1476 559.579 1207.37 291 876 291C544.629 291 276 559.579 276 890.888" stroke="url(#paint0_linear_66_239175)"/>
<path opacity="0.18" d="M1753 950C1753 466.199 1360.8 74 877 74C393.199 74 1 466.199 1 950" stroke="url(#paint1_linear_66_239175)"/>
<g clip-path="url(#clip0_66_239175)">
<path d="M947.8 0H808V139.8H947.8V0Z" fill="#D20021"/>
<path d="M829.311 57.7148H820.485V86.3468H829.311V57.7148Z" fill="white"/>
<path d="M834.024 57.715H842.499V60.3225C842.499 60.3225 843.953 56.9629 850.973 56.9629C859.949 56.9629 861.603 62.8798 861.603 70.5016V86.2968H852.778V72.2567C852.778 68.9472 852.728 64.685 848.165 64.685C843.552 64.685 842.85 68.2953 842.85 72.0059V86.2968H834.024V57.715Z" fill="white"/>
<path d="M866.366 52.6507C866.366 46.3827 867.971 41.1177 877.548 41.1177C879.303 41.1177 881.108 41.218 882.713 41.6693L882.312 49.1406C881.309 48.7896 880.507 48.5389 879.404 48.5389C876.595 48.5389 875.141 49.4415 875.141 53.2023V57.7653H881.71V64.8355H875.191V86.3972H866.366V52.6507Z" fill="white"/>
<path d="M898.81 57.0127C907.635 57.0127 914.705 62.9296 914.705 72.0557C914.705 81.1818 907.635 87.0988 898.81 87.0988C889.985 87.0988 882.864 81.1818 882.864 72.0557C882.914 62.9296 889.985 57.0127 898.81 57.0127ZM898.81 79.2764C903.223 79.2764 905.88 76.3179 905.88 72.0056C905.88 67.6933 903.223 64.7348 898.81 64.7348C894.397 64.7348 891.74 67.6933 891.74 72.0056C891.74 76.3681 894.397 79.2764 898.81 79.2764Z" fill="white"/>
<path d="M918.215 57.7155H927.04V60.2227C927.04 60.2227 929.347 56.6124 938.373 57.0135V64.7858C937.119 64.4348 935.915 64.1841 934.612 64.1841C927.893 64.1841 927.04 68.9978 927.04 74.7142V86.3475H918.215V57.7155Z" fill="white"/>
<path d="M820.485 48.2876L829.311 42.2202V53.0011H820.485V48.2876Z" fill="white"/>
</g>
<defs>
<linearGradient id="paint0_linear_66_239175" x1="876" y1="291" x2="876" y2="890.888" gradientUnits="userSpaceOnUse">
<stop stop-color="currentColor"/>
<stop offset="1" stop-color="currentColor" stop-opacity="0"/>
</linearGradient>
<linearGradient id="paint1_linear_66_239175" x1="877" y1="74" x2="877" y2="950" gradientUnits="userSpaceOnUse">
<stop stop-color="currentColor"/>
<stop offset="1" stop-color="currentColor" stop-opacity="0"/>
</linearGradient>
<clipPath id="clip0_66_239175">
<rect width="139.8" height="139.8" fill="white" transform="translate(808)"/>
</clipPath>
</defs>
</svg>
