<svg width="64" height="64" viewBox="0 0 64 64" fill="none" xmlns="http://www.w3.org/2000/svg">
<g >
<path d="M56 32C56 18.7452 45.2548 8 32 8C18.7452 8 8 18.7452 8 32C8 45.2548 18.7452 56 32 56C45.2548 56 56 45.2548 56 32Z"/>
<path d="M55.5 32C55.5 19.0213 44.9787 8.5 32 8.5C19.0213 8.5 8.5 19.0213 8.5 32C8.5 44.9787 19.0213 55.5 32 55.5C44.9787 55.5 55.5 44.9787 55.5 32Z" stroke="url(#paint0_radial_65_238983)" stroke-opacity="0.15"/>
<path d="M55.5 32C55.5 19.0213 44.9787 8.5 32 8.5C19.0213 8.5 8.5 19.0213 8.5 32C8.5 44.9787 19.0213 55.5 32 55.5C44.9787 55.5 55.5 44.9787 55.5 32Z" stroke="url(#paint1_linear_65_238983)" stroke-opacity="0.5"/>
<path d="M63.5 32C63.5 14.603 49.397 0.5 32 0.5C14.603 0.5 0.5 14.603 0.5 32C0.5 49.397 14.603 63.5 32 63.5C49.397 63.5 63.5 49.397 63.5 32Z" stroke="white" stroke-opacity="0.1"/>
<path d="M41.2201 24.5128C42.0504 23.7018 41.9271 22.3873 40.9635 21.7561C40.2426 21.2841 39.2947 21.3752 38.6702 21.9852C37.0555 23.5625 35.4425 25.1416 33.8321 26.7234C33.7406 26.8131 33.6547 26.8578 33.5259 26.8323C33.2927 26.7859 33.0577 26.7482 32.8231 26.7091C31.5355 26.494 30.248 26.28 28.9608 26.065C28.6996 26.0213 28.4392 25.9742 28.2042 25.933C28.2542 25.6851 28.3205 25.462 28.3383 25.2351C28.3554 25.0134 28.1815 24.8375 27.9584 24.849C27.7598 24.8591 27.5472 24.887 27.3698 24.9698C27.0239 25.1314 26.7006 25.3412 26.363 25.5217C26.2886 25.5615 26.1888 25.5909 26.1085 25.5776C24.7284 25.3535 23.3494 25.1227 21.9707 24.8905C21.853 24.8706 21.7661 24.887 21.676 24.9782C21.2473 25.4132 20.8106 25.8405 20.3773 26.271C20.3347 26.3132 20.2959 26.3593 20.2471 26.413C21.3269 26.9936 22.384 27.562 23.4593 28.1405C23.3144 28.3283 23.1849 28.4963 23.0997 28.6069C23.547 29.0884 23.9806 29.5551 24.426 30.0345C24.7326 29.789 25.023 29.5663 25.3006 29.3289C25.4102 29.235 25.4912 29.2259 25.619 29.2954C26.7163 29.8924 27.8181 30.4814 28.9182 31.0731C29.0096 31.1223 29.1001 31.1733 29.2142 31.2358C29.1552 31.2986 29.1172 31.3416 29.0763 31.3817C28.3317 32.118 27.5838 32.8512 26.8451 33.5931C26.7243 33.7146 26.5941 33.7641 26.4331 33.7805C25.6361 33.8626 24.8411 33.975 24.0424 34.0239C23.5609 34.0532 23.1964 34.2302 22.8952 34.5915C22.6763 34.8541 22.4385 35.1013 22.2095 35.3554C22.2332 35.3547 22.3016 35.3806 22.3708 35.4033C23.6056 35.8079 24.8398 36.2143 26.0763 36.6137C26.2003 36.6538 26.2635 36.7156 26.305 36.8395C26.6849 37.9728 27.0717 39.1036 27.4571 40.2351C27.5067 40.381 27.5601 40.5256 27.6191 40.6907C28.0377 40.2808 28.4374 39.8915 28.8326 39.4977C28.8693 39.4611 28.8906 39.3968 28.8965 39.3431C29.0065 38.3799 29.1102 37.4159 29.2247 36.4534C29.2373 36.3466 29.2813 36.2202 29.3546 36.1472C30.1129 35.3917 30.8802 34.6453 31.6455 33.8968C31.6891 33.8542 31.737 33.8158 31.7918 33.7673C31.841 33.8504 31.8808 33.9139 31.9175 33.9792C32.4628 34.9525 33.0078 35.9262 33.5535 36.8992C33.7626 37.2721 33.7612 37.2697 33.4871 37.5964C33.2871 37.8345 33.094 38.0786 32.938 38.2709C33.4016 38.7503 33.8404 39.2041 34.2845 39.6632C34.4713 39.5239 34.6595 39.3836 34.8588 39.2352C35.4837 40.3506 36.0961 41.4441 36.713 42.5459C36.7437 42.5239 36.7636 42.5131 36.7793 42.4977C37.2611 42.0254 37.7443 41.5541 38.2208 41.0761C38.2586 41.0384 38.2725 40.9529 38.2627 40.8956C38.0177 39.4544 37.7701 38.014 37.5153 36.5746C37.4936 36.4531 37.5163 36.3665 37.5799 36.2687C37.8246 35.8941 38.0735 35.5206 38.1685 35.0723C38.2512 34.682 37.9925 34.4163 37.6008 34.4931C37.465 34.52 37.3323 34.5633 37.1752 34.6052C37.1361 34.3803 37.0977 34.159 37.059 33.9376C36.8059 32.4864 36.5569 31.034 36.2944 29.5845C36.263 29.4113 36.3024 29.309 36.4229 29.1917C38.0246 27.6346 39.6222 26.073 41.2201 24.5117V24.5128ZM21.0225 26.3499C21.0078 26.3418 20.9959 26.3286 20.9684 26.3059C21.2874 25.9822 21.5947 25.667 21.9078 25.358C21.9365 25.3297 22.0049 25.3259 22.051 25.3336C23.2188 25.5256 24.3862 25.72 25.5537 25.9152C25.6047 25.9236 25.6539 25.9407 25.7366 25.9623C25.6794 26.0123 25.6382 26.0461 25.5991 26.0824C25.0154 26.6236 24.4309 27.164 23.8493 27.7076C23.7872 27.7655 23.7463 27.8193 23.6458 27.7645C22.773 27.29 21.897 26.8208 21.0225 26.3495V26.3499ZM24.6048 29.3607C24.4938 29.4487 24.4281 29.4476 24.3339 29.3436C24.1118 29.0988 23.879 28.8639 23.6318 28.6059C24.6826 27.3445 25.8749 26.235 27.3377 25.4428C27.5067 25.3514 27.697 25.2994 27.8775 25.2288C27.8928 25.2435 27.9082 25.2578 27.9232 25.2725C27.8991 25.3692 27.8963 25.4781 27.8478 25.5601C27.5947 25.9889 27.3576 26.4309 27.0643 26.8313C26.3644 27.7879 25.5349 28.6237 24.6048 29.3603V29.3607ZM37.804 40.705C37.8249 40.8216 37.8082 40.8991 37.7216 40.9819C37.4238 41.2657 37.1337 41.5569 36.8205 41.8651C36.4386 41.1836 36.0752 40.5357 35.7124 39.8877C35.5592 39.614 35.4083 39.3392 35.2526 39.0669C35.2104 38.9929 35.1964 38.9384 35.2722 38.8718C35.9254 38.2992 36.5182 37.6694 37.0572 36.9883C37.0733 36.9677 37.0991 36.9547 37.1407 36.9223C37.2185 37.3646 37.2929 37.7843 37.3662 38.2046C37.5114 39.0383 37.6532 39.8727 37.804 40.7053V40.705ZM37.7495 34.9211C37.7415 34.9766 37.7453 35.0349 37.724 35.0817C37.6242 35.3034 37.5383 35.5345 37.4102 35.7391C36.6027 37.0291 35.5745 38.1205 34.3819 39.0603C34.3599 39.0777 34.3327 39.0889 34.3145 39.099C34.0429 38.8201 33.7762 38.5464 33.5028 38.2657C34.044 37.2285 36.9654 34.9023 37.7492 34.9211H37.7495ZM35.8769 29.1446C35.8384 29.1854 35.8147 29.2664 35.8245 29.3223C36.1303 31.1115 36.4421 32.9001 36.7472 34.6896C36.757 34.7466 36.7252 34.8447 36.6812 34.8712C35.7498 35.4343 34.9171 36.1203 34.1428 36.8811C34.1267 36.8968 34.1065 36.908 34.0639 36.9387C33.3405 35.6469 32.621 34.3629 31.8955 33.068C31.8546 33.1029 31.8229 33.1266 31.7949 33.1539C30.9183 34.0127 30.0518 34.8831 29.1587 35.7244C28.9032 35.9653 28.8079 36.2254 28.7761 36.556C28.694 37.417 28.5897 38.2758 28.4923 39.135C28.4867 39.1856 28.4772 39.2481 28.4448 39.2813C28.2433 39.4887 28.0349 39.6891 27.8101 39.9104C27.772 39.8133 27.7427 39.7463 27.7189 39.6772C27.3576 38.6176 26.9945 37.5584 26.6391 36.4967C26.599 36.3773 26.5375 36.3225 26.4213 36.2851C25.3285 35.9318 24.2379 35.5722 23.1465 35.2144C23.0921 35.1966 23.0383 35.1763 22.9535 35.1463C23.0149 35.08 23.0659 35.0307 23.1102 34.9756C23.3944 34.6244 23.7484 34.4564 24.212 34.4271C25.0108 34.3768 25.8058 34.2641 26.6025 34.1831C26.7812 34.1649 26.9254 34.1126 27.0605 33.9771C27.9602 33.075 28.8697 32.183 29.7756 31.2875C29.8203 31.2431 29.8629 31.1967 29.9219 31.1346C28.5383 30.3906 27.1701 29.655 25.7335 28.8824C25.8267 28.8223 25.8944 28.7927 25.9437 28.7445C26.6622 28.0441 27.3154 27.2886 27.8582 26.4424C27.9228 26.3418 27.9892 26.3216 28.1019 26.3408C29.3253 26.5492 30.5496 26.7527 31.7736 26.957C32.4146 27.0638 33.0567 27.1651 33.6959 27.281C33.8118 27.3019 33.8774 27.2715 33.9532 27.1972C35.157 26.0154 36.3628 24.8354 37.5683 23.6553C38.0463 23.1875 38.5218 22.7166 39.0043 22.2533C39.4086 21.8651 40.0275 21.7704 40.5453 22.0051C41.0452 22.2316 41.3675 22.7413 41.3437 23.2895C41.3277 23.6599 41.1727 23.9689 40.9063 24.2286C39.4019 25.6939 37.9 27.1616 36.3974 28.6289C36.2225 28.7996 36.0441 28.9669 35.8765 29.1442L35.8769 29.1446Z" fill="url(#paint2_linear_65_238983)"/>
<path d="M39.0072 23.3896C38.1941 23.4447 37.3262 24.2421 37.1666 25.0482C37.0573 25.5988 37.382 26.0142 37.9221 26.0146C38.7422 26.0153 39.7508 25.0915 39.8262 24.2707C39.8814 23.6692 39.4935 23.3567 39.0075 23.3896H39.0072ZM39.3832 24.32C39.2596 24.8887 38.59 25.5063 38.0076 25.5897C37.7088 25.6327 37.5524 25.4836 37.5876 25.1816C37.6302 24.8154 37.8373 24.5354 38.0914 24.291C38.3543 24.0382 38.6497 23.8315 39.0327 23.8141C39.2959 23.8022 39.4031 23.9174 39.3964 24.202C39.3936 24.2278 39.3929 24.2746 39.3832 24.3196V24.32Z"/>
<path d="M39.0072 23.3896C38.1941 23.4447 37.3262 24.2421 37.1666 25.0482C37.0573 25.5988 37.382 26.0142 37.9221 26.0146C38.7422 26.0153 39.7508 25.0915 39.8262 24.2707C39.8814 23.6692 39.4935 23.3567 39.0075 23.3896H39.0072ZM39.3832 24.32C39.2596 24.8887 38.59 25.5063 38.0076 25.5897C37.7088 25.6327 37.5524 25.4836 37.5876 25.1816C37.6302 24.8154 37.8373 24.5354 38.0914 24.291C38.3543 24.0382 38.6497 23.8315 39.0327 23.8141C39.2959 23.8022 39.4031 23.9174 39.3964 24.202C39.3936 24.2278 39.3929 24.2746 39.3832 24.3196V24.32Z"/>
</g>
<defs>
<radialGradient id="paint0_radial_65_238983" cx="0" cy="0" r="1" gradientUnits="userSpaceOnUse" gradientTransform="translate(32 8) rotate(90) scale(61.7143)">
<stop stop-color="#ccc"/>
<stop offset="1" stop-color="#ccc"/>
</radialGradient>
<linearGradient id="paint1_linear_65_238983" x1="8" y1="8" x2="18.5" y2="27.5" gradientUnits="userSpaceOnUse">
<stop stop-color="#ccc"/>
<stop offset="1" stop-color="#ccc" stop-opacity="0"/>
</linearGradient>
<linearGradient id="paint2_linear_65_238983" x1="39.2883" y1="38.0229" x2="26.3014" y2="42.4403" gradientUnits="userSpaceOnUse">
<stop stop-color="#64DAFF"/>
<stop offset="0.729167" stop-color="#0092FF"/>
</linearGradient>
<linearGradient id="paint3_linear_65_238983" x1="39.5215" y1="25.4511" x2="37.9015" y2="26.003" gradientUnits="userSpaceOnUse">
<stop stop-color="#64DAFF"/>
<stop offset="0.729167" stop-color="#0092FF"/>
</linearGradient>
<linearGradient id="paint4_linear_65_238983" x1="39.5215" y1="25.4511" x2="37.9015" y2="26.003" gradientUnits="userSpaceOnUse">
<stop stop-color="#64DAFF"/>
<stop offset="0.729167" stop-color="#0092FF"/>
</linearGradient>
<clipPath id="clip0_65_238983">
<rect width="64" height="64" fill="#ccc"/>
</clipPath>
</defs>
</svg>
