<svg xmlns:xlink="http://www.w3.org/1999/xlink" xmlns="http://www.w3.org/2000/svg" aria-hidden="true" width="20"  height="21" ><defs><symbol fill="none" viewBox="0 0 20 21" id="cloud_services" xmlns="http://www.w3.org/2000/svg"><path d="M17.333.004a2.667 2.667 0 00-2.666 2.667v1.427a2.636 2.636 0 00-3.334 2.573v.658a2.894 2.894 0 00-2.666 0v-.658a2.635 2.635 0 00-3.334-2.573V2.671A2.667 2.667 0 100 2.67v14.666a2.667 2.667 0 005.333 0V15.91a2.637 2.637 0 003.334-2.572v-.66a2.894 2.894 0 002.666 0v.66a2.636 2.636 0 003.334 2.572v1.427a2.667 2.667 0 105.333 0V2.671A2.667 2.667 0 0017.333.004zm-14 6.667v10.666a.667.667 0 11-1.333 0V2.671a.667.667 0 011.333 0v4zm3.334 6.667a.667.667 0 11-1.334 0V6.67a.667.667 0 011.334 0v6.667zM10 11.004a1 1 0 110-2 1 1 0 010 2zm4.667 2.334a.667.667 0 01-1.334 0V6.67a.667.667 0 011.334 0v6.667zm3.333 4a.666.666 0 11-1.333 0V2.67a.667.667 0 111.333 0v14.666z" fill="#000"></path></symbol></defs>
                                <use xlink:href="#cloud_services"></use>
                            </svg>