<svg xmlns:xlink="http://www.w3.org/1999/xlink" xmlns="http://www.w3.org/2000/svg" aria-hidden="true" width="22"  height="21" ><defs><symbol fill="none" viewBox="0 0 22 21" id="data_protection" xmlns="http://www.w3.org/2000/svg"><path d="M21 5.008a5 5 0 00-9.8-1.383h-.4a5 5 0 10-6.183 6.183v.4a5 5 0 106.182 6.183h.4a5 5 0 106.183-6.183v-.4a5 5 0 003.617-4.8zm-5-3a2.99 2.99 0 011.382 5.647v-4.03h-4.03A2.99 2.99 0 0116 2.008zm-4.96 12.383h-.084a4.996 4.996 0 00-4.34-4.341v-.084a4.996 4.996 0 004.34-4.34h.084a4.996 4.996 0 004.34 4.34v.084a4.996 4.996 0 00-4.34 4.34zm4.34-2.316v2.317h-2.315a3.007 3.007 0 012.316-2.317zm-8.764 0a3.007 3.007 0 012.316 2.316H6.617v-2.316zm0-4.134V5.625h2.316a3.007 3.007 0 01-2.316 2.316zm6.449-2.316h2.317v2.316a3.007 3.007 0 01-2.317-2.316zM2.999 5.008a2.99 2.99 0 015.647-1.383h-4.03v4.03A2.991 2.991 0 013 5.008zm3 13a2.99 2.99 0 01-1.382-5.647v4.03h4.029a2.992 2.992 0 01-2.647 1.617zm13-3a2.99 2.99 0 01-5.646 1.383h4.029v-4.03a2.99 2.99 0 011.617 2.647z" fill="#000"></path></symbol></defs>
                                <use xlink:href="#data_protection"></use>
                            </svg>