<svg xmlns:xlink="http://www.w3.org/1999/xlink" xmlns="http://www.w3.org/2000/svg" aria-hidden="true" width="19"  height="21" ><defs><symbol fill="none" viewBox="0 0 19 21" id="data_storage" xmlns="http://www.w3.org/2000/svg"><path d="M18.052 6.368a2.727 2.727 0 00-1.365-2.364l-2.282-1.316-1.734-1L10.39.37a2.729 2.729 0 00-2.728 0L5.379 1.688l-1.734 1-2.28 1.316A2.727 2.727 0 000 6.367v7.273a2.727 2.727 0 001.365 2.364l6.297 3.636a2.728 2.728 0 002.728 0l6.297-3.636a2.728 2.728 0 001.365-2.363V6.369zm-2.365-.63a.733.733 0 01.365.63v2.636h-5.293l2.647-4.584 2.281 1.318zM8.662 2.102a.73.73 0 01.728 0l2.283 1.318-2.647 4.584L6.379 3.42l2.283-1.318zM2 6.368a.733.733 0 01.365-.63L4.647 4.42l2.646 4.584H2V6.368zm0 7.272v-2.636h5.293L4.646 15.59l-2.281-1.32A.734.734 0 012 13.64zm7.39 4.267a.73.73 0 01-.728 0l-2.283-1.318 2.647-4.585 2.647 4.586-2.283 1.317zm6.662-4.267a.733.733 0 01-.365.63l-2.282 1.319-2.646-4.585h5.294l-.001 2.636z" fill="#000"></path></symbol></defs>
                                <use xlink:href="#data_storage"></use>
                            </svg>