<svg xmlns:xlink="http://www.w3.org/1999/xlink" xmlns="http://www.w3.org/2000/svg" aria-hidden="true" width="20"  height="21" ><defs><symbol fill="none" viewBox="0 0 20 21" id="hybrid_cloud" xmlns="http://www.w3.org/2000/svg"><path d="M13.943 6.604c-.346-.105-.708-.213-1.076-.327a4.743 4.743 0 001.867-3.337c0-1.733-1.937-2.897-4.82-2.897-2.85 0-4.764 1.164-4.764 2.897.003.676.228 1.332.64 1.867l.319.552c-.644.324-1.272.623-1.855.9C1.693 7.47 0 8.27 0 9.76c0 1.891 2.623 2.682 5.944 3.684.346.104.707.213 1.074.327a4.748 4.748 0 00-1.867 3.333c0 1.734 1.938 2.898 4.821 2.898 2.849 0 4.763-1.164 4.763-2.898a3.04 3.04 0 00-.495-1.662l-.444-.769c.636-.32 1.257-.615 1.834-.888 2.563-1.212 4.256-2.013 4.256-3.503 0-1.888-2.624-2.679-5.943-3.679zM9.914 2.041c1.75 0 2.82.581 2.82.897 0 .659-.815 1.749-2.2 2.55a7.645 7.645 0 01-3.058-1.767l-.262-.45a1.044 1.044 0 01-.067-.334c.004-.356 1.106-.896 2.767-.896zm-3.393 9.49c-1.611-.486-4.006-1.209-4.479-1.76.369-.428 1.917-1.16 3.067-1.704a82.02 82.02 0 002-.972l3.31 5.736c-1.231-.494-2.592-.906-3.898-1.3zm5.63 6.09a5.611 5.611 0 01-2.18.386c-1.749 0-2.82-.582-2.82-.898 0-.658.814-1.748 2.2-2.55 1.85.7 3.384 1.541 3.384 2.55 0 .234-.446.452-.584.512zM9.497 7.23c.627.25 1.284.48 1.953.695l2.553 4.423c-.391.188-.796.387-1.209.595L9.497 7.23zm6.316 4.254L14.258 8.79c1.49.46 3.194 1.032 3.585 1.487-.617.494-1.3.9-2.03 1.207z" fill="#000"></path></symbol></defs>
                                <use xlink:href="#hybrid_cloud"></use>
                            </svg>