<svg xmlns:xlink="http://www.w3.org/1999/xlink" xmlns="http://www.w3.org/2000/svg" aria-hidden="true" width="18"  height="21" ><defs><symbol fill="none" viewBox="0 0 18 21" id="data_management" xmlns="http://www.w3.org/2000/svg"><path d="M13.332 4.044V2.508L8.999.008l-4.334 2.5v1.534l-1.333-.767-3 1.733v3.467l1.333.768-1.333.765v5l4.333 2.5L6 16.74v1.534l3 1.734 3-1.733v-1.533l1.333.768 4.333-2.502v-5l-1.333-.768 1.333-.765V5.008l-3-1.733-1.333.77zm-11 2.118l1-.578 1.333.768 1.521.877v1.157l-1 .578-1.52-.878-1.334-.768V6.162zm7.667 9.424v1.534l-1 .578-1-.578v-3.288l1-.578 1 .578v1.754zm5.666-1.733l-2.333 1.346-1.333-.767v-1.754l-3-1.733-3 1.733v1.755l-1.334.767-2.333-1.346v-2.692l1.333-.768 1.519.881 3-1.733V6.075l-1.519-.877V3.665L9 2.316l2.333 1.346v1.534l-1.52.879v3.467l3 1.733 1.52-.88 1.333.767v2.691zm0-6.533l-1.333.768-1.52.877-1-.578V7.229l1.52-.877 1.333-.768 1 .578V7.32z" fill="#000"></path></symbol></defs>
                                <use xlink:href="#data_management"></use>
                            </svg>