<svg xmlns:xlink="http://www.w3.org/1999/xlink" xmlns="http://www.w3.org/2000/svg" aria-hidden="true" width="20"  height="21" ><defs><symbol fill="none" viewBox="0 0 20 21" id="devops" xmlns="http://www.w3.org/2000/svg"><path d="M20 10.008v-1.8C20 4.257 16.87.003 10 .003 4.58.003 0 3.515 0 7.675v4.133c0 3.951 3.13 8.205 10 8.205 5.42 0 10-3.512 10-7.667v-2.338zm-10 8.005c-5.526 0-8-3.116-8-6.205a5.02 5.02 0 01.227-1.511C3.122 7.418 6.39 5.329 10 5.329c2.622 0 4.119 1.252 4.348 2.538A7.205 7.205 0 0010 6.508a6.486 6.486 0 00-5.677 2.949l-.052.09a4.713 4.713 0 00-.666 2.261c0 2.365 2.241 4.879 6.394 4.879a10.852 10.852 0 007.836-3.267c-.799 2.689-4.489 4.593-7.835 4.593zm3.637-8.06A4.481 4.481 0 0110 11.507a4.675 4.675 0 01-3.636-1.443A4.481 4.481 0 0110 8.508a4.676 4.676 0 013.637 1.444zm4.134-.234c-.893 2.88-4.16 4.968-7.771 4.968-2.622 0-4.119-1.252-4.348-2.538A7.205 7.205 0 0010 13.51a6.485 6.485 0 005.676-2.947l.053-.09c.41-.687.64-1.467.666-2.267 0-2.365-2.241-4.878-6.394-4.878a10.85 10.85 0 00-7.836 3.266c.799-2.686 4.489-4.59 7.835-4.59 5.526 0 8 3.116 8 6.205a5.022 5.022 0 01-.227 1.511h-.002z" fill="#000"></path></symbol></defs>
                                <use xlink:href="#devops"></use>
                            </svg>