<svg xmlns:xlink="http://www.w3.org/1999/xlink" xmlns="http://www.w3.org/2000/svg" aria-hidden="true" width="20"  height="21" ><defs><symbol fill="none" viewBox="0 0 20 21" id="enterprise_apps" xmlns="http://www.w3.org/2000/svg"><path d="M11.192 2.733L8.811 1.37.668 6.03v3.866L5.43 12.62v2.726l8.143 4.661 3.381-1.933v-5.45l2.38-1.363v-9.32L15.955.007l-4.762 2.725zM2.668 8.755v-1.58l6.143-3.516 3.762 2.153v1.58l-1.381.79L8.811 6.82 5.43 8.753v1.581l-2.762-1.58zm12.286 8.174l-1.381.79-6.143-3.515V9.9l1.38-.79 1.382.79v2.725l3.38 1.933 1.382-.79v3.162zm2.38-6.812l-.38.218-3.381 1.933-1.381-.79v-1.58l2.38-1.363V4.67l-1.38-.794 2.762-1.58 1.38.792v7.03z" fill="#000"></path></symbol></defs>
                                <use xlink:href="#enterprise_apps"></use>
                            </svg>