<svg xmlns="http://www.w3.org/2000/svg" enable-background="new 0 0 128 128" viewBox="0 0 128 128" id="Lightning"><path fill="#0274f0" d="M24.9,127c-1.8,0-3.3-1.6-3-3.4c1.6-9.4,9.8-16.6,19.7-16.6s18.1,7.2,19.7,16.6c0.3,1.8-1.1,3.4-3,3.4H24.9z" class="colorf0e402 svgShape"></path><path fill="#1e2935" d="M27.3 101.4c-1.1 0-2.2-.6-2.7-1.7l-8.9-18.4c-.7-1.5-.1-3.3 1.4-4 1.5-.7 3.3-.1 4 1.4L30 97c.7 1.5.1 3.3-1.4 4C28.2 101.3 27.8 101.4 27.3 101.4zM98.4 59.6l-23.8-6.8 24.1-36.4c.5-.8.6-1.8.3-2.8s-1.1-1.6-2.1-1.8L57.3 2.5c-.5-.1-1.1-.1-1.6.1l-21 7c-1.3.4-2.1 1.6-2 3 .1 1.3 1 2.5 2.3 2.8l13.9 3.4 14.3 43.8-17.5 54.7 49.7-52.2 1.5.4c1.6.5 3.3-.5 3.7-2.1C100.9 61.7 100 60 98.4 59.6z" class="color444b54 svgShape"></path><polygon fill="#95c0ee" points="12.6 61.4 37.1 23.2 78.3 22.8 58.9 56.6 92.6 67.5 39.5 123.6 52.4 75.6" class="color95cdee svgShape"></polygon><polygon fill="#ffffff" points="67 42.7 78.3 22.8 35.6 12.4 12.6 61.4 25.2 65.9 40.7 36.3" class="colorffffff svgShape"></polygon><line x1="97.6" x2="39.5" y1="62.5" y2="123.6" fill="#444b54"></line><path fill="#1e2935" d="M95.4,60.4l-50,52.6l9.8-36.6c0.4-1.5-0.4-3.1-1.9-3.6L16.7,59.7L30,31.4c0.7-1.5,0.1-3.3-1.4-4c-1.5-0.7-3.3-0.1-4,1.4L9.9,60.2c-0.4,0.8-0.4,1.6-0.1,2.4c0.3,0.8,1,1.4,1.8,1.7l37.1,13.3l-12.1,45.3c-0.4,1.6,0.5,3.2,2.1,3.7c0.3,0.1,0.5,0.1,0.8,0.1c0.8,0,1.6-0.3,2.2-0.9l58.1-61.1C100.9,63.3,96.6,59.2,95.4,60.4z" class="color444b54 svgShape"></path><path fill="#1e2935" d="M91.7 70.3L57.9 59.5c-.9-.3-1.6-.9-1.9-1.8-.3-.8-.3-1.8.2-2.6l17.4-30.4-38.7-9.4c-1.6-.4-.2-6.2 1.4-5.8L79 19.8c.9.2 1.7.9 2 1.7s.3 1.9-.2 2.7L63.3 54.9l30.2 9.7C95.1 65.1 92 70.4 91.7 70.3zM72.6 112.8c-1.2 0-2.3-.7-2.8-1.8-.6-1.5.1-3.3 1.6-3.9l25.3-10.6c1.5-.6 3.3.1 3.9 1.6s-.1 3.3-1.6 3.9l-25.3 10.6C73.4 112.7 73 112.8 72.6 112.8zM103.6 127c-.2 0-.4 0-.6-.1s-.4-.1-.6-.2c-.2-.1-.4-.2-.5-.3-.2-.1-.3-.2-.4-.4-.6-.6-.9-1.3-.9-2.1 0-.2 0-.4.1-.6 0-.2.1-.4.2-.6.1-.2.2-.3.3-.5.1-.2.2-.3.4-.5.1-.1.3-.3.4-.4.2-.1.3-.2.5-.3.2-.1.4-.1.6-.2.4-.1.8-.1 1.2 0 .2 0 .4.1.6.2.2.1.3.2.5.3.2.1.3.2.5.4.1.1.3.3.4.5.1.2.2.3.3.5.1.2.1.4.2.6 0 .2.1.4.1.6 0 .8-.3 1.6-.9 2.1-.1.1-.3.3-.5.4-.2.1-.3.2-.5.3-.2.1-.4.1-.6.2S103.8 127 103.6 127zM88.5 127H75.6c-1.7 0-3-1.3-3-3s1.3-3 3-3h12.9c1.7 0 3 1.3 3 3S90.2 127 88.5 127zM8.4 127c-.8 0-1.6-.3-2.1-.9-.1-.1-.3-.3-.4-.4-.1-.2-.2-.3-.3-.5-.1-.2-.1-.4-.2-.6 0-.2-.1-.4-.1-.6 0-.8.3-1.6.9-2.1 1.1-1.1 3.1-1.1 4.2 0 .6.6.9 1.3.9 2.1 0 .2 0 .4-.1.6 0 .2-.1.4-.2.6-.1.2-.2.4-.3.5-.1.2-.2.3-.4.4C10 126.7 9.2 127 8.4 127zM15 111.7c-.5 0-1.1-.1-1.6-.4l-6.5-4c-1.4-.9-1.9-2.7-1-4.1.9-1.4 2.7-1.9 4.1-1l6.5 4c1.4.9 1.9 2.7 1 4.1C17 111.1 16 111.7 15 111.7z" class="color444b54 svgShape"></path></svg>