<svg xmlns="http://www.w3.org/2000/svg" width="80" height="80" viewBox="0 0 80 80" fill="none">
<circle cx="40" cy="14" r="10" fill="black"/>
<path d="M29.0711 14.9289C32.9763 18.8342 32.9763 25.1658 29.0711 29.0711C25.1658 32.9763 18.8342 32.9763 14.9289 29.0711C11.0237 25.1658 11.0237 18.8342 14.9289 14.9289C18.8342 11.0237 25.1658 11.0237 29.0711 14.9289Z" fill="black"/>
<path d="M65.0711 29.0711C61.1658 32.9763 54.8342 32.9763 50.9289 29.0711C47.0237 25.1658 47.0237 18.8342 50.9289 14.9289C54.8342 11.0237 61.1658 11.0237 65.0711 14.9289C68.9763 18.8342 68.9763 25.1658 65.0711 29.0711Z" fill="black"/>
<ellipse cx="66" cy="40" rx="10" ry="10" transform="rotate(90 66 40)" fill="black"/>
<circle cx="40" cy="66" r="10" fill="black"/>
<path d="M65.0711 50.9289C68.9763 54.8342 68.9763 61.1658 65.0711 65.0711C61.1658 68.9763 54.8342 68.9763 50.9289 65.0711C47.0237 61.1658 47.0237 54.8342 50.9289 50.9289C54.8342 47.0237 61.1658 47.0237 65.0711 50.9289Z" fill="black"/>
<path d="M29.0711 65.0711C25.1658 68.9763 18.8342 68.9763 14.9289 65.0711C11.0237 61.1658 11.0237 54.8342 14.9289 50.9289C18.8342 47.0237 25.1658 47.0237 29.0711 50.9289C32.9763 54.8342 32.9763 61.1658 29.0711 65.0711Z" fill="black"/>
<ellipse cx="14" cy="40" rx="10" ry="10" transform="rotate(90 14 40)" fill="black"/>
</svg>